Coordinates
version=1
nRows=16
nColumns=33
inDegrees=yes

Units are S.I. units (second, meters, Newtons, ...)
Angles are in degrees.

endheader
time	ground_thorax_rot_x	ground_thorax_rot_y	ground_thorax_rot_z	ground_thorax_tx	ground_thorax_ty	ground_thorax_tz	clav_prot_r	clav_elev_r	scapula_abduction_r	scapula_elevation_r	scapula_upward_rot_r	scapula_winging_r	shoulder_elv_r	plane_of_elev_r	axial_rot_r	elbow_flexion_r	pro_sup_r	wrist_flex_r	wrist_dev_r	clav_prot_l	clav_elev_l	scapula_abduction_l	scapula_elevation_l	scapula_upward_rot_l	scapula_winging_l	shoulder_elv_l	plane_of_elev_l	axial_rot_l	elbow_flexion_l	pro_sup_l	wrist_flex_l	wrist_dev_l
      8.42000000	    -37.52196422	    -25.23045766	     26.25323191	    -89.58658269	    854.20009903	    -43.49113121	     45.00000000	    -45.00000000	     40.92270543	    -45.00000000	    -29.01284156	   2510.04806925	   -823.66729509	    -90.00000000	     19.63814315	   3218.01163110	   -266.75408096	     14.53526989	     12.06251828	     -0.45611424	     33.22225104	    -33.68942783	    -45.00000000	    -45.00000000	   4409.76381946	  -3881.35831732	     28.09445813	     52.66762733	     -8.23543223	     43.40085302	     12.21198310	    -22.46012676
      8.43000000	    -37.38508334	    -25.52314020	     26.51448915	    -87.17969971	    853.91500238	    -43.47181334	     45.00000000	    -45.00000000	     41.06645096	    -45.00000000	    -28.62162714	   2510.10792226	   -823.63017215	    -90.00000000	     19.62270740	   3217.96432922	   -266.62891774	     14.47960215	     12.08434009	     -0.32728562	     33.23856625	    -33.78248505	    -45.00000000	    -45.00000000	   4409.72443552	  -3881.27626216	     28.23212746	     53.24741773	     -8.13191012	     43.83058300	     12.34998599	    -22.34797231
      8.44000000	    -37.22963735	    -25.86239481	     26.83940175	    -84.70498477	    853.54229375	    -43.44145228	     45.00000000	    -45.00000000	     41.13436712	    -45.00000000	    -28.32887784	   2510.23465475	   -823.57754587	    -90.00000000	     19.59210205	   3217.91818666	   -266.46212367	     14.43990685	     12.08837902	     -0.23556017	     33.24897227	    -33.90338756	    -45.00000000	    -45.00000000	   4409.71389974	  -3881.20574485	     28.34353329	     53.81903512	     -8.04633222	     44.23798367	     12.46763108	    -22.25849977
      8.45000000	    -37.03282157	    -26.21736341	     27.20615034	    -82.16228468	    853.07469288	    -43.39909620	     45.00000000	    -45.00000000	     41.29639499	    -45.00000000	    -28.04235450	   2510.30518763	   -823.57124791	    -90.00000000	     19.60830352	   3217.91449896	   -266.24161330	     14.37152854	     12.08480259	     -0.14405704	     33.25379763	    -33.97336010	    -45.00000000	    -45.00000000	   4409.62588133	  -3881.14642329	     28.44865486	     54.40880026	     -7.98887085	     44.66577618	     12.59763281	    -22.13731615
      8.46000000	    -36.82835894	    -26.57223735	     27.56034704	    -79.55808333	    852.50688735	    -43.34265046	     45.00000000	    -45.00000000	     41.44757827	    -45.00000000	    -27.75182401	   2510.38820266	   -823.57309408	    -90.00000000	     19.63328134	   3217.91081500	   -265.97464735	     14.28804980	     12.08348918	      0.00065492	     33.26986141	    -34.01538195	    -45.00000000	    -45.00000000	   4409.50620713	  -3881.09797333	     28.52554800	     54.94288451	     -7.93042235	     45.09287493	     12.72501174	    -21.99717627
      8.47000000	    -36.63135799	    -26.97341937	     28.01460864	    -76.89973920	    851.83729348	    -43.26803994	     45.00000000	    -45.00000000	     41.43005641	    -45.00000000	    -27.67347650	   2510.55928550	   -823.51032788	    -90.00000000	     19.59227126	   3217.85653993	   -265.67187420	     14.33379551	     12.05119151	     -0.11648973	     33.22682405	    -34.08977825	    -45.00000000	    -45.00000000	   4409.54103945	  -3881.07025410	     28.66508321	     55.51139007	     -7.87413992	     45.44016368	     12.76788673	    -21.92318195
      8.48000000	    -36.40172245	    -27.41647482	     28.48869966	    -74.18973972	    851.06509539	    -43.17188977	     45.00000000	    -45.00000000	     41.60466188	    -45.00000000	    -27.35967158	   2510.62262098	   -823.53331767	    -90.00000000	     19.63772776	   3217.85214873	   -265.28574749	     14.24849357	     12.04490453	     -0.02325189	     33.21830149	    -34.08996774	    -45.00000000	    -45.00000000	   4409.45094935	  -3880.99564145	     28.71318803	     55.90489859	     -7.87176661	     45.88088344	     12.88656841	    -21.72562574
      8.49000000	    -36.20185345	    -27.78852372	     28.92629227	    -71.44365089	    850.20210790	    -43.04450465	     45.00000000	    -45.00000000	     41.65190834	    -45.00000000	    -27.14316347	   2510.75858000	   -823.52650084	    -90.00000000	     19.65296297	   3217.84023893	   -264.86068528	     14.20302014	     12.01783446	     -0.00219123	     33.18179038	    -34.16374596	    -45.00000000	    -45.00000000	   4409.42164746	  -3880.98815520	     28.80468712	     56.35304316	     -7.85349794	     46.22551455	     12.96061616	    -21.59704508
      8.50000000	    -35.95678147	    -28.15992785	     29.39860787	    -68.66216159	    849.25043679	    -42.88898401	     45.00000000	    -45.00000000	     41.84065714	    -45.00000000	    -26.89540056	   2510.81819939	   -823.55120717	    -90.00000000	     19.70035900	   3217.82710264	   -264.36205028	     14.08332039	     12.01774768	      0.09401800	     33.17894395	    -34.20475420	    -45.00000000	    -45.00000000	   4409.30124740	  -3880.99585679	     28.84049360	     56.66139504	     -7.83945414	     46.57997468	     13.05414320	    -21.42523883
      8.51000000	    -35.72514614	    -28.56085706	     29.90833591	    -65.84656961	    848.21346060	    -42.71111731	     45.00000000	    -45.00000000	     41.91885544	    -45.00000000	    -26.64918288	   2510.90710877	   -823.53252480	    -90.00000000	     19.70496820	   3217.78719115	   -263.82148562	     13.98074542	     12.01951805	      0.18297281	     33.18397828	    -34.23439135	    -45.00000000	    -45.00000000	   4409.20747466	  -3880.97993431	     28.83566153	     56.89458729	     -7.82591049	     46.88371968	     13.12282095	    -21.25692931
      8.52000000	    -35.43421048	    -29.05202421	     30.53809986	    -62.99352756	    847.08960785	    -42.52603779	     45.00000000	    -45.00000000	     41.94960565	    -45.00000000	    -26.57748611	   2511.02191697	   -823.52437738	    -90.00000000	     19.71925801	   3217.77767843	   -263.26950005	     13.91023907	     11.98489099	      0.08576888	     33.12861722	    -34.14327799	    -45.00000000	    -45.00000000	   4409.12795035	  -3880.97602133	     28.86046084	     57.07965669	     -7.83725604	     47.13485354	     13.17906707	    -21.11209846
      8.53000000	    -35.25636984	    -29.27353651	     30.86522683	    -60.10999338	    845.88811996	    -42.33799312	     45.00000000	    -45.00000000	     42.19945967	    -45.00000000	    -25.85084693	   2510.96162634	   -823.53956535	    -90.00000000	     19.76361738	   3217.78621472	   -262.54502155	     13.70044558	     12.00768927	      0.58875366	     33.18904617	    -34.25652409	    -45.00000000	    -45.00000000	   4408.81156597	  -3880.97324758	     28.67562612	     57.30707667	     -7.75668495	     47.39106295	     13.25926386	    -20.93272530
      8.54000000	    -34.84806074	    -29.96073526	     31.81869074	    -57.20213775	    844.61544377	    -42.15631872	     45.00000000	    -45.00000000	     42.00310355	    -45.00000000	    -26.41377405	   2511.26028816	   -823.50103839	    -90.00000000	     19.74672459	   3217.78712159	   -261.97803378	     13.72138410	     11.91615905	      0.06783262	     33.09202164	    -34.06842537	    -45.00000000	    -45.00000000	   4408.98825025	  -3881.02845505	     28.82945230	     57.30678151	     -7.84367299	     47.55684093	     13.23511693	    -20.80200544
      8.55000000	    -34.55635217	    -30.33588210	     32.40353574	    -54.28079798	    843.28379722	    -41.97923315	     45.00000000	    -45.00000000	     42.12654672	    -45.00000000	    -26.22674538	   2511.30920672	   -823.51724768	    -90.00000000	     19.78578830	   3217.70654473	   -261.30439790	     13.60723229	     11.91991007	      0.14711234	     33.08189529	    -34.01173673	    -45.00000000	    -45.00000000	   4408.87345821	  -3881.02598784	     28.85834291	     57.15247408	     -7.94256671	     47.73817747	     13.27466238	    -20.60003339
      8.56000000	    -34.27919681	    -30.69805683	     32.95093802	    -51.36207127	    841.90813541	    -41.80411046	     45.00000000	    -45.00000000	     42.14671150	    -45.00000000	    -26.04032728	   2511.42232509	   -823.52451296	    -90.00000000	     19.81690979	   3217.72044211	   -260.59288409	     13.47817676	     11.88704874	      0.26651906	     33.07362027	    -33.96555880	    -45.00000000	    -45.00000000	   4408.70090658	  -3881.06678727	     28.77061406	     57.14447823	     -7.92160264	     47.87910937	     13.27145777	    -20.42556863
      8.57000000	    -33.90716144	    -31.14706881	     33.68640449	    -48.45929101	    840.50418096	    -41.62157566	     45.00000000	    -45.00000000	     42.11871791	    -45.00000000	    -26.16682996	   2511.58300926	   -823.55173844	    -90.00000000	     19.86627648	   3217.75414335	   -259.89397012	     13.41887987	     11.81685763	      0.03733865	     33.00482763	    -33.87916378	    -45.00000000	    -45.00000000	   4408.65532341	  -3881.15102188	     28.76437632	     57.08478414	     -8.01582881	     48.01630302	     13.28518922	    -20.28970119
